<?xml version="1.0" encoding="iso-8859-1"?>
<!-- Generator: Adobe Illustrator 18.0.0, SVG Export Plug-In . SVG Version: 6.00 Build 0)  -->
<!DOCTYPE svg PUBLIC "-//W3C//DTD SVG 1.1//EN" "http://www.w3.org/Graphics/SVG/1.1/DTD/svg11.dtd">
<svg version="1.1" id="Capa_1" xmlns="http://www.w3.org/2000/svg" xmlns:xlink="http://www.w3.org/1999/xlink" x="0px" y="0px"
	 viewBox="0 0 296 296" style="enable-background:new 0 0 296 296;" xml:space="preserve">
<path d="M294.54,98.181l-7.695-10.7c-0.236-12.151-4.133-24.975-12.372-36.394c-9.536-13.254-29.4-27.104-48.457-28.465
	c-0.433-0.024-7.538-0.049-18.485-0.074c-3.499-0.008-6.553,2.338-7.457,5.718c-6.146,22.99-36.625,30.458-52.078,30.458
	c-15.138,0-45.908-7.471-52.08-30.47c-0.904-3.37-3.962-5.717-7.451-5.711c-10.868,0.019-17.946,0.054-18.49,0.079
	c-19.014,1.358-38.9,15.185-48.457,28.465C13.295,62.506,9.381,75.329,9.146,87.481l-7.68,10.7c-1.202,1.642-1.701,3.709-1.363,5.73
	c0.336,2.038,1.451,3.826,3.107,5.028l46.303,33.302c3.445,2.505,8.265,1.729,10.758-1.731l7.02-9.777
	c12.214,30.514,8.844,54.439-0.61,84.206c-0.779,2.453-0.341,5.131,1.179,7.208c1.52,2.077,3.94,3.306,6.514,3.306h4.959v39.932
	c0,4.457,3.613,8.07,8.07,8.07h121.194c4.457,0,8.07-3.613,8.07-8.07v-39.932h4.997c2.574,0,4.993-1.228,6.513-3.304
	c1.52-2.077,1.96-4.755,1.181-7.208c-9.444-29.765-12.817-53.677-0.63-84.163l7.006,9.732c2.492,3.46,7.299,4.236,10.743,1.731
	l46.317-33.302c1.657-1.202,2.771-2.99,3.108-5.028C296.225,101.889,295.741,99.823,294.54,98.181z"/>
<g>
</g>
<g>
</g>
<g>
</g>
<g>
</g>
<g>
</g>
<g>
</g>
<g>
</g>
<g>
</g>
<g>
</g>
<g>
</g>
<g>
</g>
<g>
</g>
<g>
</g>
<g>
</g>
<g>
</g>
</svg>
