<?xml version="1.0" encoding="iso-8859-1"?>
<!-- Generator: Adobe Illustrator 18.0.0, SVG Export Plug-In . SVG Version: 6.00 Build 0)  -->
<!DOCTYPE svg PUBLIC "-//W3C//DTD SVG 1.1//EN" "http://www.w3.org/Graphics/SVG/1.1/DTD/svg11.dtd">
<svg version="1.1" id="Capa_1" xmlns="http://www.w3.org/2000/svg" xmlns:xlink="http://www.w3.org/1999/xlink" x="0px" y="0px"
	 viewBox="0 0 296.667 296.667" style="enable-background:new 0 0 296.667 296.667;" xml:space="preserve">
<path d="M259.805,234.641v-40.567c0-26.351-17-48.716-40.625-56.77V157c0,4.143-3.357,7.5-7.5,7.5c-4.143,0-7.5-3.357-7.5-7.5
	v-22.731c-1.44-0.104-2.889-0.175-4.355-0.175H180.18V157c0,4.143-3.357,7.5-7.5,7.5c-4.143,0-7.5-3.357-7.5-7.5v-22.906h-8.385
	v-8.927h-33.782c-4.143,0-7.5-3.357-7.5-7.5s3.357-7.5,7.5-7.5h33.782v-24h-33.782c-4.143,0-7.5-3.357-7.5-7.5s3.357-7.5,7.5-7.5
	h33.782v-24h-33.782c-4.143,0-7.5-3.357-7.5-7.5s3.357-7.5,7.5-7.5h33.782V10c0-5.523-4.477-10-10-10H46.861
	c-2.657,0-5.204,1.057-7.08,2.938c-1.876,1.881-2.927,4.431-2.92,7.088l0.585,224.665c0.024,9.083,6.291,16.674,14.727,18.769
	c-8.453,2.099-14.727,9.717-14.727,18.819v4.974c0,10.721,8.691,19.413,19.413,19.413h6.487c5.523,0,10-4.477,10-10V286
	c0-5.523,4.477-10,10-10c5.523,0,10,4.477,10,10v0.667c0,5.523,4.477,10,10,10h4.667c5.523,0,10-4.477,10-10V286
	c0-5.523,4.477-10,10-10c5.523,0,10,4.477,10,10v0.667c0,5.523,4.477,10,10,10h4.667c5.523,0,10-4.477,10-10V286
	c0-5.523,4.477-10,10-10c5.523,0,10,4.477,10,10v0.667c0,5.523,4.477,10,10,10h4.667c5.523,0,10-4.477,10-10V286
	c0-5.523,4.477-10,10-10c5.523,0,10,4.477,10,10v0.667c0,5.523,4.477,10,10,10h3.046c10.721,0,19.413-8.691,19.413-19.413v-4.974
	c0-9.103-6.274-16.72-14.727-18.819C253.532,251.361,259.805,243.743,259.805,234.641z M229.013,240.167h-160
	c-4.143,0-7.5-3.357-7.5-7.5c0-4.143,3.357-7.5,7.5-7.5h160c4.143,0,7.5,3.357,7.5,7.5
	C236.513,236.809,233.156,240.167,229.013,240.167z"/>
<g>
</g>
<g>
</g>
<g>
</g>
<g>
</g>
<g>
</g>
<g>
</g>
<g>
</g>
<g>
</g>
<g>
</g>
<g>
</g>
<g>
</g>
<g>
</g>
<g>
</g>
<g>
</g>
<g>
</g>
</svg>
