<?xml version="1.0" encoding="iso-8859-1"?>
<!-- Generator: Adobe Illustrator 18.0.0, SVG Export Plug-In . SVG Version: 6.00 Build 0)  -->
<!DOCTYPE svg PUBLIC "-//W3C//DTD SVG 1.1//EN" "http://www.w3.org/Graphics/SVG/1.1/DTD/svg11.dtd">
<svg version="1.1" id="Capa_1" xmlns="http://www.w3.org/2000/svg" xmlns:xlink="http://www.w3.org/1999/xlink" x="0px" y="0px"
	 viewBox="0 0 290 290" style="enable-background:new 0 0 290 290;" xml:space="preserve">
<g>
	<path d="M131.881,211.187l-0.158,30.659l25.515-17.343c2.821-1.917,4.843-4.669,5.867-7.781l-0.055-12.669l-6.792-58.626
		c-0.279-0.322-0.555-0.647-0.843-0.963l0.315-3.598L143.468,35.008c-0.741-6.394,1.291-12.817,5.575-17.621
		c4.279-4.799,10.42-7.551,16.849-7.551h0.007h0.007h0.007l1.272,0.001l0.796-9.105c0.021-0.245,0.028-0.489,0.026-0.732h-11.815
		c-12.269,0-22.25,9.981-22.25,22.25V144c0,4.143-3.357,7.5-7.5,7.5c-4.143,0-7.5-3.357-7.5-7.5V22.25
		C118.942,9.981,108.96,0,96.692,0H65.561c0,0.287,0.014,0.575,0.047,0.863l20.3,175.23c1.291,11.147-3.716,22.088-12.997,28.396
		l-36.789,25.006c-7.011,4.765-8.985,14.229-4.463,21.399c2.624,4.162,7.201,6.687,12.121,6.687h49.593
		c3.171,0,6.009-1.977,7.107-4.951C103.705,243.896,112.417,225.335,131.881,211.187z"/>
	<path d="M260.767,32.418h-11.815c-12.269,0-22.25,9.981-22.25,22.25v121.75c0,4.143-3.357,7.5-7.5,7.5c-4.143,0-7.5-3.357-7.5-7.5
		V54.668c0-12.269-9.982-22.25-22.25-22.25h-31.13c0,0.287,0.014,0.576,0.047,0.864l20.3,175.23
		c1.291,11.147-3.717,22.088-12.997,28.396l-36.789,25.006c-7.011,4.765-8.984,14.229-4.463,21.399
		c2.624,4.162,7.201,6.687,12.121,6.687h49.593c3.171,0,6.009-1.977,7.107-4.951c3.224-8.735,11.937-27.295,31.401-41.444
		l-0.199,38.782c-0.01,2.015,0.783,3.952,2.204,5.381c1.421,1.429,3.354,2.232,5.369,2.232h16.421c2.014,0,3.946-0.802,5.367-2.23
		c1.421-1.427,2.215-3.362,2.207-5.376l-0.236-54.484c3.439-7.251,5.162-15.249,4.542-23.394
		c-0.784-10.378-5.198-20.01-12.139-27.635l12.564-143.731C260.762,32.906,260.769,32.662,260.767,32.418z"/>
</g>
<g>
</g>
<g>
</g>
<g>
</g>
<g>
</g>
<g>
</g>
<g>
</g>
<g>
</g>
<g>
</g>
<g>
</g>
<g>
</g>
<g>
</g>
<g>
</g>
<g>
</g>
<g>
</g>
<g>
</g>
</svg>
