<?xml version="1.0" encoding="iso-8859-1"?>
<!-- Generator: Adobe Illustrator 18.0.0, SVG Export Plug-In . SVG Version: 6.00 Build 0)  -->
<!DOCTYPE svg PUBLIC "-//W3C//DTD SVG 1.1//EN" "http://www.w3.org/Graphics/SVG/1.1/DTD/svg11.dtd">
<svg version="1.1" id="Capa_1" xmlns="http://www.w3.org/2000/svg" xmlns:xlink="http://www.w3.org/1999/xlink" x="0px" y="0px"
	 viewBox="0 0 305.333 305.333" style="enable-background:new 0 0 305.333 305.333;" xml:space="preserve">
<path d="M215.65,137.964c-7.161-25.677-10.925-52.753-10.925-79.41V58.55c8.543-5.19,14.216-14.295,14.216-24.665
	C218.941,17.744,212.08,0,204.414,0c-11.112,0-35.458,49.604-46.324,73.003c-0.981,2.112-3.098,3.462-5.426,3.462
	c-2.328-0.001-4.442-1.353-5.423-3.465c-10.867-23.4-35.212-73-46.328-73c-7.672,0-14.528,17.744-14.528,33.885
	c0,10.368,5.673,19.472,14.216,24.663c0,26.952-3.685,53.459-10.921,79.422c-12.919,46.351-2.007,134.873,1.381,160.357
	c0.532,4.005,3.947,7.006,7.987,7.006h46.118l-0.003-57c0-4.142,3.357-7.5,7.5-7.5c4.142,0,7.5,3.357,7.5,7.5l0.003,57h46.113
	c4.049,0,7.453-2.991,7.987-7.005C217.657,272.843,228.577,184.314,215.65,137.964z"/>
<g>
</g>
<g>
</g>
<g>
</g>
<g>
</g>
<g>
</g>
<g>
</g>
<g>
</g>
<g>
</g>
<g>
</g>
<g>
</g>
<g>
</g>
<g>
</g>
<g>
</g>
<g>
</g>
<g>
</g>
</svg>
