<?xml version="1.0" encoding="iso-8859-1"?>
<!-- Generator: Adobe Illustrator 18.0.0, SVG Export Plug-In . SVG Version: 6.00 Build 0)  -->
<!DOCTYPE svg PUBLIC "-//W3C//DTD SVG 1.1//EN" "http://www.w3.org/Graphics/SVG/1.1/DTD/svg11.dtd">
<svg version="1.1" id="Capa_1" xmlns="http://www.w3.org/2000/svg" xmlns:xlink="http://www.w3.org/1999/xlink" x="0px" y="0px"
	 viewBox="0 0 289.738 289.738" style="enable-background:new 0 0 289.738 289.738;" xml:space="preserve">
<g>
	<path d="M71.415,37.079l19.589,19.59l19.589-19.59c2.93-2.928,7.678-2.928,10.607,0l19.589,19.59l19.588-19.589
		c1.407-1.407,3.314-2.197,5.304-2.197c0.893,0,1.767,0.167,2.59,0.47c2.512-1.748,5.139-3.336,7.847-4.792
		C165.66,12.635,144.065,0.218,119,0.003c-30.512-0.261-56.198,17.64-63.001,41.884l4.809-4.808
		C63.737,34.151,68.485,34.151,71.415,37.079z"/>
	<path d="M71.415,79.079l16.889,16.889c1.491,1.491,3.909,1.491,5.401,0l16.889-16.889c2.93-2.928,7.678-2.928,10.607,0
		l17.677,17.678c-0.664-6.273-0.66-6.74-0.656-7.214c0.043-5.048,0.702-9.999,1.911-14.8c-1.748-0.154-3.395-0.913-4.647-2.164
		L118.388,55.48c-1.376-1.376-3.607-1.376-4.983,0L96.307,72.579c-2.93,2.928-7.678,2.928-10.607,0L68.602,55.48
		c-1.376-1.376-3.607-1.376-4.983,0l-8.393,8.393c0.545,4.975,1.271,11.508,2.075,18.71l3.505-3.505
		C63.737,76.151,68.485,76.151,71.415,79.079z"/>
	<path d="M100.74,187.221c-11.458-11.9-11.097-30.904,0.804-42.363c6.403-6.163,15.107-9.167,24.093-8.197
		c7.118,0.769,13.677,4.232,18.642,9.39l0.084,0.087c-1.388-12.318-2.463-21.901-3.295-29.378c-0.094,0.004-0.186,0.014-0.28,0.014
		c-1.989,0-3.896-0.79-5.304-2.196l-17.673-17.674c-1.058-1.058-2.773-1.058-3.831,0l-17.673,17.674
		c-2.93,2.928-7.678,2.928-10.607,0L68.027,96.905c-1.058-1.058-2.773-1.058-3.831,0l-4.755,4.755
		c2.435,21.656,4.804,42.562,4.804,42.562c0.173,1.466-0.751,2.871-2.239,3.255c-1.082,0.279-2.228-0.136-3.003-0.941l-24.61-25.562
		c-5.587-5.803-14.854-6.502-20.912-1.194c-6.469,5.667-6.831,15.517-0.934,21.641c0,0,68.524,69.21,70.224,70.289
		c-4.299,0.811-7.553,4.58-7.553,9.115v24.234c0,5.126,4.156,9.282,9.282,9.282h74.792c0.14-1.813,0.479-3.576,1.001-5.266
		L100.74,187.221z"/>
	<path d="M245.093,149.974c-1.407,1.407-3.314,2.197-5.304,2.197c-1.989,0-3.896-0.79-5.304-2.196l-19.589-19.59l-19.589,19.59
		c-2.93,2.928-7.678,2.928-10.607,0l-19.589-19.59l-6.67,6.671c2.435,21.656,4.803,42.561,4.803,42.561
		c0.15,1.277-0.531,2.508-1.694,3.058c-0.41,0.194-0.847,0.288-1.28,0.288c-0.797,0-1.581-0.318-2.159-0.918L133.1,156.067
		c-2.936-3.05-6.855-4.584-10.779-4.584c-3.733,0-7.471,1.389-10.374,4.183c-5.952,5.73-6.132,15.2-0.402,21.152
		c0,0,68.524,69.21,70.224,70.289c-4.299,0.811-7.553,4.58-7.553,9.115v24.234c0,5.126,4.156,9.282,9.282,9.282h88.189
		c5.126,0,9.282-4.156,9.282-9.282l0-24.234c0-4.561-3.292-8.345-7.628-9.126c1.793-2.467,2.863-5.493,2.863-8.776
		c0,0,1.958-50.844,3.566-92.842l-15.09-15.091L245.093,149.974z"/>
	<path d="M162.253,112.837c2.913-1.172,6.083-0.439,8.161,1.638l16.938,16.938c1.464,1.464,3.838,1.464,5.302,0l16.938-16.938
		c2.93-2.928,7.678-2.928,10.607,0l16.938,16.938c1.464,1.464,3.838,1.464,5.302,0l16.818-16.819
		c0.739-0.739,1.595-1.368,2.565-1.757c2.913-1.172,6.083-0.439,8.161,1.638l10.568,10.569c0.292-7.649,0.552-14.499,0.762-20.024
		l-13.895-13.895c-1.513-1.513-3.965-1.513-5.477,0l-16.731,16.731c-0.739,0.739-1.595,1.368-2.565,1.757
		c-2.913,1.172-6.083,0.439-8.161-1.638l-16.85-16.851c-1.512-1.513-3.965-1.513-5.477,0l-16.85,16.851
		c-2.93,2.928-7.678,2.928-10.607,0l-16.85-16.851c-1.513-1.513-3.965-1.513-5.477,0l-8.145,8.146
		c0.545,4.976,1.271,11.509,2.076,18.711l3.386-3.386C160.428,113.856,161.284,113.227,162.253,112.837z"/>
	<path d="M165.111,70.279c1.989,0,3.896,0.79,5.304,2.196l19.589,19.59l19.589-19.59c2.93-2.928,7.678-2.928,10.607,0l19.589,19.59
		l19.588-19.589c1.407-1.407,3.315-2.197,5.304-2.197c1.989,0,3.896,0.79,5.304,2.196l11.391,11.391
		C277.622,56.815,250.774,35.68,218,35.399c-0.219-0.002-0.441-0.003-0.66-0.003c-30.225,0-55.59,17.818-62.343,41.89l4.81-4.81
		C161.215,71.069,163.122,70.279,165.111,70.279z"/>
</g>
<g>
</g>
<g>
</g>
<g>
</g>
<g>
</g>
<g>
</g>
<g>
</g>
<g>
</g>
<g>
</g>
<g>
</g>
<g>
</g>
<g>
</g>
<g>
</g>
<g>
</g>
<g>
</g>
<g>
</g>
</svg>
