<?xml version="1.0" encoding="iso-8859-1"?>
<!-- Generator: Adobe Illustrator 18.0.0, SVG Export Plug-In . SVG Version: 6.00 Build 0)  -->
<!DOCTYPE svg PUBLIC "-//W3C//DTD SVG 1.1//EN" "http://www.w3.org/Graphics/SVG/1.1/DTD/svg11.dtd">
<svg version="1.1" id="Capa_1" xmlns="http://www.w3.org/2000/svg" xmlns:xlink="http://www.w3.org/1999/xlink" x="0px" y="0px"
	 viewBox="0 0 277.082 277.082" style="enable-background:new 0 0 277.082 277.082;" xml:space="preserve">
<g>
	<path d="M268.797,181.616c-4.798,2.276-10.108,3.511-15.607,3.511h-18.349c-4.143,0-7.5-3.357-7.5-7.5v-83
		c0-4.143,3.357-7.5,7.5-7.5h6.186c-5.706-13.048-11.976-24.933-18.729-35.318V22.845c0-7.868-6.4-14.269-14.269-14.269h-34.279
		c1.447,3.064,2.26,6.484,2.26,10.091v4.909h31.288V38.99h-31.288v4.898c0,3.611-0.815,7.035-2.265,10.102
		c-3.8,8.037-11.983,13.611-21.447,13.611h-27.496c-9.464,0-17.647-5.575-21.447-13.611c-1.45-3.067-2.265-6.49-2.265-10.102V38.99
		H69.874V23.576h31.218v-4.909c0-3.607,0.813-7.027,2.26-10.091H69.142c-7.868,0-14.269,6.4-14.269,14.269v28.836
		c-6.783,10.416-13.08,22.344-18.81,35.446h6.31c4.143,0,7.5,3.357,7.5,7.5v83c0,4.143-3.357,7.5-7.5,7.5H24.025
		c-5.545,0-10.896-1.257-15.725-3.569c-4.611,25.352-7.477,51.75-8.295,77.934c-0.095,3.05,1.051,6.009,3.174,8.201
		c2.124,2.192,5.046,3.435,8.098,3.435h254.528c3.053,0,5.976-1.238,8.1-3.431c2.124-2.193,3.267-5.153,3.172-8.205
		C276.261,233.328,273.4,206.95,268.797,181.616z"/>
	<path d="M124.803,56.601h27.496c7.01,0,12.712-5.703,12.712-12.713V18.667c0-7.01-5.702-12.712-12.712-12.712h-27.496
		c-7.01,0-12.712,5.702-12.712,12.712v25.222C112.091,50.898,117.793,56.601,124.803,56.601z M127.091,20.955h22.92v20.647h-22.92
		V20.955z"/>
	<path d="M24.025,170.127h10.849v-68H20.922L4.399,140.222c-2.877,6.634-2.227,14.204,1.741,20.25
		C10.107,166.517,16.793,170.127,24.025,170.127z"/>
	<path d="M271.076,160.472c3.967-6.046,4.617-13.616,1.739-20.25l-16.522-38.096h-13.951v68h10.849
		C260.42,170.127,267.107,166.517,271.076,160.472z"/>
</g>
<g>
</g>
<g>
</g>
<g>
</g>
<g>
</g>
<g>
</g>
<g>
</g>
<g>
</g>
<g>
</g>
<g>
</g>
<g>
</g>
<g>
</g>
<g>
</g>
<g>
</g>
<g>
</g>
<g>
</g>
</svg>
