<?xml version="1.0" encoding="iso-8859-1"?>
<!-- Generator: Adobe Illustrator 18.0.0, SVG Export Plug-In . SVG Version: 6.00 Build 0)  -->
<!DOCTYPE svg PUBLIC "-//W3C//DTD SVG 1.1//EN" "http://www.w3.org/Graphics/SVG/1.1/DTD/svg11.dtd">
<svg version="1.1" id="Capa_1" xmlns="http://www.w3.org/2000/svg" xmlns:xlink="http://www.w3.org/1999/xlink" x="0px" y="0px"
	 viewBox="0 0 262.555 262.555" style="enable-background:new 0 0 262.555 262.555;" xml:space="preserve">
<path d="M206.613,43.109v-28.84C206.613,6.4,200.213,0,192.345,0C186.983,0,75.571,0,70.21,0c-7.868,0-14.269,6.4-14.269,14.269
	v28.84C19.973,98.344,41.388,184.664,42.784,253.458c0.103,5.052,4.227,9.097,9.28,9.097c14.062,0,42.332,0,71.713,0V30.414
	c-26.158,0-50.419,0-52.836,0V15c5.293,0,115.378,0,120.672,0v15.414c-2.417,0-26.678,0-52.835,0v232.141
	c29.381,0,57.651,0,71.712,0c5.056,0,9.177-4.042,9.28-9.097C221.167,184.664,242.581,98.344,206.613,43.109z M98.444,60.46
	c4.143,0,7.5,3.357,7.5,7.5c0,4.142-3.357,7.5-7.5,7.5H67.111c-4.143,0-7.5-3.358-7.5-7.5c0-4.143,3.358-7.5,7.5-7.5H98.444z
	 M195.444,75.461h-31.333c-4.143,0-7.5-3.358-7.5-7.5c0-4.143,3.357-7.5,7.5-7.5h31.333c4.143,0,7.5,3.357,7.5,7.5
	C202.944,72.103,199.586,75.461,195.444,75.461z"/>
<g>
</g>
<g>
</g>
<g>
</g>
<g>
</g>
<g>
</g>
<g>
</g>
<g>
</g>
<g>
</g>
<g>
</g>
<g>
</g>
<g>
</g>
<g>
</g>
<g>
</g>
<g>
</g>
<g>
</g>
</svg>
