<?xml version="1.0" encoding="iso-8859-1"?>
<!-- Generator: Adobe Illustrator 18.0.0, SVG Export Plug-In . SVG Version: 6.00 Build 0)  -->
<!DOCTYPE svg PUBLIC "-//W3C//DTD SVG 1.1//EN" "http://www.w3.org/Graphics/SVG/1.1/DTD/svg11.dtd">
<svg version="1.1" id="Capa_1" xmlns="http://www.w3.org/2000/svg" xmlns:xlink="http://www.w3.org/1999/xlink" x="0px" y="0px"
	 viewBox="0 0 306.444 306.444" style="enable-background:new 0 0 306.444 306.444;" xml:space="preserve">
<g>
	<path d="M305.444,205.131l-10.045-12.868c3.697-4.193,4.109-10.474,0.754-15.138l-71.465-99.374
		c-4.957-6.893-12.929-10.979-21.42-10.979h-12.011V50.217c0-6.721-5.449-12.17-12.17-12.17h-18.192v230.349h55.868
		c6.722,0,12.17-5.449,12.17-12.17v-9.441c0-3.877-1.819-7.322-4.642-9.551c10.443-11.053,16.605-24.336,16.605-38.02
		c0-10.217-3.433-19.861-9.519-28.376l33.155,33.113c3.483,3.479,8.584,4.417,12.953,2.743l9.827,12.59
		c1.604,2.055,4.571,2.421,6.626,0.816l10.687-8.342C306.683,210.153,307.048,207.186,305.444,205.131z"/>
	<path d="M145.896,38.047h-18.191c-6.721,0-12.17,5.449-12.17,12.17v16.554h-12.011c-8.491,0-16.463,4.086-21.42,10.979
		L10.64,177.125c-3.298,4.587-2.958,10.738,0.568,14.929L1,205.131c-1.604,2.055-1.239,5.022,0.817,6.626l10.687,8.342
		c2.055,1.604,5.022,1.239,6.627-0.816l9.909-12.694c4.427,1.818,9.667,0.911,13.221-2.638l33.156-33.113
		c-6.086,8.516-9.519,18.16-9.519,28.376c0,13.684,6.161,26.967,16.604,38.02c-2.824,2.229-4.642,5.674-4.642,9.551v9.441
		c0,6.721,5.449,12.17,12.17,12.17h55.867V38.047z"/>
</g>
<g>
</g>
<g>
</g>
<g>
</g>
<g>
</g>
<g>
</g>
<g>
</g>
<g>
</g>
<g>
</g>
<g>
</g>
<g>
</g>
<g>
</g>
<g>
</g>
<g>
</g>
<g>
</g>
<g>
</g>
</svg>
